# Blender 3.4.1
# www.blender.org
mtllib weird.mtl
o Cube
v 0.462729 1.000000 -0.462729
v 1.000000 -0.419015 -0.419015
v 0.462729 1.000000 0.462729
v 1.000000 -0.419015 0.419015
v -0.462729 1.000000 -0.462729
v -0.941773 -0.514872 -0.581116
v -0.462729 1.000000 0.462729
v -0.780215 -0.353314 0.581116
v 1.000000 0.419015 0.419015
v -0.780215 0.353314 0.581116
v 1.000000 0.419015 -0.419015
v -0.941773 0.514872 -0.581116
v 0.462729 1.998220 0.462729
v -0.462729 1.998220 0.462729
v 0.462729 1.998220 -0.462729
v -0.462729 1.998220 -0.462729
v 0.251653 0.577949 -1.326296
v 0.577949 -0.577949 -1.000000
v 0.721987 0.440469 1.281518
v 0.721987 -0.440469 1.281518
v 0.505151 0.419015 -0.419015
v 0.505151 -0.419015 -0.419015
v 0.505151 0.419015 0.419015
v 0.505151 -0.419015 0.419015
v -0.354474 -0.354474 2.305938
v -0.354474 0.354474 2.305938
v 0.721987 0.440469 1.618275
v 0.721987 -0.440469 1.618275
v 0.721987 0.721987 1.000000
v 0.721987 -0.721987 1.000000
v 0.354474 0.354474 2.305938
v 0.354474 -0.354474 2.305938
v 1.712519 0.440469 1.281518
v 1.712519 -0.440469 1.281518
v 1.712519 0.440469 1.618275
v 1.712519 -0.440469 1.618275
v -0.577949 -0.577949 -1.000000
v -0.721987 -0.721987 1.000000
v -0.721987 0.721987 1.000000
v -0.251653 0.577949 -1.326296
v -0.760305 -0.212545 -0.340254
v -0.671320 -0.123560 0.299892
v -0.671320 0.123561 0.299892
v -0.760305 0.212545 -0.340254
v -0.796592 -0.514872 -0.601297
v -0.635034 -0.353314 0.560935
v -0.635034 0.353314 0.560935
v -0.796592 0.514872 -0.601297
v -1.868863 -0.212545 -0.186157
v -1.779878 -0.123560 0.453988
v -1.779878 0.123561 0.453988
v -1.868863 0.212545 -0.186157
v 1.000000 -1.000000 -1.000000
v -1.000000 -1.000000 -1.000000
v 1.000000 1.000000 -1.000000
v -1.000000 1.000000 -1.000000
v 0.316369 -0.316369 -2.917450
v -0.316369 -0.316369 -2.917450
v 0.316369 0.316369 -2.917450
v -0.316369 0.316369 -2.917450
v 0.577949 -0.577949 -2.917450
v -0.577949 -0.577949 -2.917450
v 0.251653 0.577949 -2.591154
v -0.251653 0.577949 -2.591154
v 0.316369 -0.316369 -2.404769
v -0.316369 -0.316369 -2.404769
v 0.316369 0.316369 -2.404769
v -0.316369 0.316369 -2.404769
v -0.577949 0.577949 -1.000000
v 0.577949 0.577949 -1.000000
v -0.577949 0.577949 -2.917450
v 0.577949 0.577949 -2.917450
v -0.251653 0.979381 -1.326296
v 0.251653 0.979381 -1.326296
v -0.251653 0.979381 -2.591154
v 0.251653 0.979381 -2.591154
v -1.024269 0.347967 -1.381503
v -1.024269 -0.347967 -1.381503
v -1.024269 0.347967 -2.535947
v -1.024269 -0.347967 -2.535947
v -0.721987 -0.721987 1.899793
v -0.721987 0.721987 1.899793
v 0.721987 0.721987 1.899793
v 0.721987 -0.721987 1.899793
vn 1.0000 -0.0000 -0.0000
vn -0.0000 -1.0000 -0.0000
vn 0.1377 -0.0000 0.9905
vn -0.0000 -0.9905 0.1377
vn -0.0000 0.8881 0.4596
vn -0.0000 1.0000 -0.0000
vn -0.5108 0.8390 0.1876
vn -1.0000 -0.0000 -0.0000
vn -0.0000 -0.0000 1.0000
vn -0.0000 -0.0000 -1.0000
vn 0.9020 -0.0000 0.4316
vn 0.8742 0.4494 0.1840
vn -0.9905 -0.0000 0.1377
vn 0.0188 0.9907 0.1351
vn -0.0188 0.9907 -0.1351
vn -0.0188 -0.9907 -0.1351
vn -0.1377 -0.0000 -0.9905
vn 0.0188 -0.9907 0.1351
vn -0.4581 -0.8889 -0.0000
vn -0.6498 -0.0000 -0.7601
vn -0.4581 0.8889 -0.0000
vn -0.6498 -0.0000 0.7601
vn -0.7415 -0.0000 0.6710
vn 0.7415 -0.0000 0.6710
vn -0.0000 0.7415 0.6710
vn -0.0000 -0.7415 0.6710
vn 0.5108 0.8390 0.1876
vn 0.8742 -0.4494 0.1840
vt 0.692159 0.567159
vt 0.447623 0.572623
vt 0.692159 0.682841
vt 0.447623 0.677377
vt 0.807841 0.567159
vt 0.432369 0.197640
vt 0.807841 0.682841
vt 0.442309 0.052360
vt 0.552377 0.677377
vt 0.557691 0.052360
vt 0.552377 0.572623
vt 0.567631 0.197640
vt 0.692159 0.682841
vt 0.807841 0.682841
vt 0.692159 0.567159
vt 0.807841 0.567159
vt 0.572244 0.406457
vt 0.427756 0.447244
vt 0.576260 0.750000
vt 0.423740 0.750000
vt 0.552377 0.572623
vt 0.447623 0.572623
vt 0.552377 0.677377
vt 0.447623 0.677377
vt 0.438629 0.936371
vt 0.561371 0.936371
vt 0.576260 0.750000
vt 0.423740 0.750000
vt 0.625000 0.750000
vt 0.375000 0.750000
vt 0.561371 0.813629
vt 0.438629 0.813629
vt 0.576260 0.750000
vt 0.423740 0.750000
vt 0.576260 0.750000
vt 0.423740 0.750000
vt 0.427756 0.302756
vt 0.125000 0.750000
vt 0.375000 0.000000
vt 0.875000 0.750000
vt 0.625000 0.000000
vt 0.572244 0.343543
vt 0.471154 0.165009
vt 0.480735 0.084991
vt 0.519265 0.084991
vt 0.528846 0.165009
vt 0.432369 0.197640
vt 0.442309 0.052360
vt 0.557691 0.052360
vt 0.567631 0.197640
vt 0.471154 0.165009
vt 0.480735 0.084991
vt 0.519265 0.084991
vt 0.528846 0.165009
vt 0.375000 0.500000
vt 0.125000 0.500000
vt 0.375000 0.250000
vt 0.625000 0.500000
vt 0.875000 0.500000
vt 0.625000 0.250000
vt 0.460454 0.414546
vt 0.460454 0.335454
vt 0.539546 0.414546
vt 0.539546 0.335454
vt 0.427756 0.447244
vt 0.427756 0.302756
vt 0.572244 0.406457
vt 0.572244 0.343543
vt 0.460454 0.414546
vt 0.460454 0.335454
vt 0.539546 0.414546
vt 0.539546 0.335454
vt 0.572244 0.302756
vt 0.572244 0.447244
vt 0.572244 0.302756
vt 0.572244 0.447244
vt 0.572244 0.343543
vt 0.572244 0.406457
vt 0.572244 0.343543
vt 0.572244 0.406457
vt 0.572244 0.302756
vt 0.427756 0.302756
vt 0.572244 0.302756
vt 0.427756 0.302756
vt 0.125000 0.750000
vt 0.375000 0.000000
vt 0.375000 1.000000
vt 0.875000 0.750000
vt 0.625000 0.000000
vt 0.625000 1.000000
vt 0.625000 0.750000
vt 0.375000 0.750000
s 0
usemtl Material
f 1/1/1 13/13/1 3/3/1
f 30/30/2 81/85/2 38/38/2
f 6/6/3 48/50/3 12/12/3
f 53/55/4 38/38/4 54/56/4
f 9/9/2 21/21/2 11/11/2
f 37/37/2 61/65/2 18/18/2
f 7/7/5 29/29/5 3/3/5
f 3/3/6 55/58/6 1/1/6
f 7/7/7 56/59/7 39/40/7
f 5/5/6 55/58/6 56/59/6
f 16/16/6 13/13/6 15/15/6
f 7/7/8 16/16/8 5/5/8
f 3/3/9 14/14/9 7/7/9
f 5/5/10 15/15/10 1/1/10
f 2/2/1 55/58/1 11/11/1
f 4/4/11 29/29/11 30/30/11
f 9/9/12 55/58/12 29/29/12
f 4/4/1 53/55/1 2/2/1
f 21/21/1 24/24/1 22/22/1
f 11/11/9 22/22/9 2/2/9
f 2/2/6 24/24/6 4/4/6
f 4/4/10 23/23/10 9/9/10
f 31/31/9 25/25/9 32/32/9
f 39/40/6 83/91/6 29/29/6
f 28/28/9 35/35/9 27/27/9
f 38/39/8 82/89/8 39/41/8
f 19/19/1 30/30/1 29/29/1
f 28/28/1 83/91/1 84/92/1
f 28/28/1 30/30/1 20/20/1
f 19/19/1 83/91/1 27/27/1
f 33/33/1 36/36/1 34/34/1
f 20/20/2 36/36/2 28/28/2
f 19/19/10 34/34/10 20/20/10
f 27/27/6 33/33/6 19/19/6
f 6/6/13 38/39/13 8/8/13
f 8/8/13 39/41/13 10/10/13
f 12/12/13 54/57/13 6/6/13
f 12/12/13 39/41/13 56/60/13
f 44/46/14 51/53/14 43/45/14
f 6/6/15 46/48/15 45/47/15
f 12/12/16 47/49/16 10/10/16
f 10/10/17 46/48/17 8/8/17
f 41/43/13 46/48/13 42/44/13
f 43/45/13 46/48/13 47/49/13
f 44/46/13 45/47/13 41/43/13
f 44/46/13 47/49/13 48/50/13
f 51/53/13 49/51/13 50/52/13
f 43/45/3 50/52/3 42/44/3
f 41/43/17 52/54/17 44/46/17
f 41/43/18 50/52/18 49/51/18
f 18/18/10 54/57/10 37/37/10
f 70/74/10 53/55/10 18/18/10
f 37/37/10 56/60/10 69/73/10
f 69/73/10 55/58/10 70/74/10
f 60/64/1 66/70/1 58/62/1
f 63/67/1 74/78/1 17/17/1
f 18/18/1 72/76/1 70/74/1
f 37/37/19 80/84/19 62/66/19
f 57/61/10 62/66/10 58/62/10
f 59/63/10 61/65/10 57/61/10
f 58/62/10 71/75/10 60/64/10
f 60/64/10 72/76/10 59/63/10
f 68/72/10 65/69/10 66/70/10
f 58/62/6 65/69/6 57/61/6
f 59/63/2 68/72/2 60/64/2
f 57/61/8 67/71/8 59/63/8
f 40/42/6 70/74/6 17/17/6
f 64/68/6 72/76/6 71/75/6
f 17/17/6 72/76/6 63/67/6
f 64/68/6 69/73/6 40/42/6
f 74/78/6 75/79/6 73/77/6
f 17/17/9 73/77/9 40/42/9
f 40/42/8 75/79/8 64/68/8
f 64/68/10 76/80/10 63/67/10
f 77/81/8 80/84/8 78/82/8
f 62/66/20 79/83/20 71/75/20
f 71/75/21 77/81/21 69/73/21
f 37/37/22 77/81/22 78/82/22
f 26/26/23 81/87/23 25/25/23
f 32/32/24 83/91/24 31/31/24
f 31/31/25 82/90/25 26/26/25
f 25/25/26 84/92/26 32/32/26
f 1/1/1 15/15/1 13/13/1
f 30/30/2 84/92/2 81/85/2
f 6/6/3 45/47/3 48/50/3
f 53/55/4 30/30/4 38/38/4
f 9/9/2 23/23/2 21/21/2
f 37/37/2 62/66/2 61/65/2
f 7/7/5 39/40/5 29/29/5
f 3/3/27 29/29/27 55/58/27
f 7/7/6 5/5/6 56/59/6
f 5/5/6 1/1/6 55/58/6
f 16/16/6 14/14/6 13/13/6
f 7/7/8 14/14/8 16/16/8
f 3/3/9 13/13/9 14/14/9
f 5/5/10 16/16/10 15/15/10
f 2/2/1 53/55/1 55/58/1
f 4/4/11 9/9/11 29/29/11
f 9/9/1 11/11/1 55/58/1
f 4/4/28 30/30/28 53/55/28
f 21/21/1 23/23/1 24/24/1
f 11/11/9 21/21/9 22/22/9
f 2/2/6 22/22/6 24/24/6
f 4/4/10 24/24/10 23/23/10
f 31/31/9 26/26/9 25/25/9
f 39/40/6 82/88/6 83/91/6
f 28/28/9 36/36/9 35/35/9
f 38/39/8 81/86/8 82/89/8
f 19/19/1 20/20/1 30/30/1
f 28/28/1 27/27/1 83/91/1
f 28/28/1 84/92/1 30/30/1
f 19/19/1 29/29/1 83/91/1
f 33/33/1 35/35/1 36/36/1
f 20/20/2 34/34/2 36/36/2
f 19/19/10 33/33/10 34/34/10
f 27/27/6 35/35/6 33/33/6
f 6/6/13 54/57/13 38/39/13
f 8/8/13 38/39/13 39/41/13
f 12/12/13 56/60/13 54/57/13
f 12/12/13 10/10/13 39/41/13
f 44/46/14 52/54/14 51/53/14
f 6/6/15 8/8/15 46/48/15
f 12/12/16 48/50/16 47/49/16
f 10/10/17 47/49/17 46/48/17
f 41/43/13 45/47/13 46/48/13
f 43/45/13 42/44/13 46/48/13
f 44/46/13 48/50/13 45/47/13
f 44/46/13 43/45/13 47/49/13
f 51/53/13 52/54/13 49/51/13
f 43/45/3 51/53/3 50/52/3
f 41/43/17 49/51/17 52/54/17
f 41/43/18 42/44/18 50/52/18
f 18/18/10 53/55/10 54/57/10
f 70/74/10 55/58/10 53/55/10
f 37/37/10 54/57/10 56/60/10
f 69/73/10 56/60/10 55/58/10
f 60/64/1 68/72/1 66/70/1
f 63/67/1 76/80/1 74/78/1
f 18/18/1 61/65/1 72/76/1
f 37/37/19 78/82/19 80/84/19
f 57/61/10 61/65/10 62/66/10
f 59/63/10 72/76/10 61/65/10
f 58/62/10 62/66/10 71/75/10
f 60/64/10 71/75/10 72/76/10
f 68/72/10 67/71/10 65/69/10
f 58/62/6 66/70/6 65/69/6
f 59/63/2 67/71/2 68/72/2
f 57/61/8 65/69/8 67/71/8
f 40/42/6 69/73/6 70/74/6
f 64/68/6 63/67/6 72/76/6
f 17/17/6 70/74/6 72/76/6
f 64/68/6 71/75/6 69/73/6
f 74/78/6 76/80/6 75/79/6
f 17/17/9 74/78/9 73/77/9
f 40/42/8 73/77/8 75/79/8
f 64/68/10 75/79/10 76/80/10
f 77/81/8 79/83/8 80/84/8
f 62/66/20 80/84/20 79/83/20
f 71/75/21 79/83/21 77/81/21
f 37/37/22 69/73/22 77/81/22
f 26/26/23 82/90/23 81/87/23
f 32/32/24 84/92/24 83/91/24
f 31/31/25 83/91/25 82/90/25
f 25/25/26 81/87/26 84/92/26
